<svg width="55" height="54" xmlns="http://www.w3.org/2000/svg" xmlns:xlink="http://www.w3.org/1999/xlink" xml:space="preserve" overflow="hidden"><g transform="translate(-986 -239)"><path d="M13.5211 27.0422C6.13828 12.2766 0.116016 0.16875 0.147656 0.137109 0.16875 0.116016 3.16406 1.26562 6.79219 2.7L13.3945 5.31563 13.3945 7.56211C13.3945 8.79609 13.3629 9.80859 13.3102 9.80859 13.268 9.80859 12.2344 9.40781 11.0215 8.92266 9.79805 8.4375 8.79609 8.04727 8.775 8.06836 8.75391 8.07891 12.8461 16.2949 17.8559 26.325L26.9684 44.55 36.102 26.3145C41.1328 16.2844 45.2355 8.06836 45.2145 8.05781 45.2039 8.04727 44.1387 8.45859 42.8414 8.96484L40.5 9.89297 40.5211 7.61484 40.5527 5.33672 47.1762 2.71055C50.8254 1.26562 53.8312 0.116016 53.8629 0.137109 53.9156 0.189844 27.0844 53.8945 27 53.8945 26.9684 53.8945 20.9039 41.8078 13.5211 27.0422Z" transform="matrix(-1.01852 1.24733e-16 1.22465e-16 1 1041 239)"/><path d="M17.6133 9.59766 17.6133 0 19.7227 0 21.832 0 21.832 5.95898C21.832 9.23906 21.8637 11.918 21.9164 11.918 21.9586 11.918 24.4582 9.23906 27.4746 5.95898L32.959 0.0105469 34.6254 0 36.2812 0 36.2812 9.59766 36.2812 19.1953 34.1719 19.1953 32.0625 19.1953 32.0625 13.2891C32.0625 10.0406 32.0309 7.38281 31.9887 7.38281 31.9359 7.38281 29.4574 10.0406 26.4727 13.2891L21.041 19.1848 19.3324 19.1953 17.6133 19.1953 17.6133 9.59766Z" transform="matrix(-1.01852 1.24733e-16 1.22465e-16 1 1041 239)"/></g></svg>